<?xml version="1.0" standalone="no"?>
<!DOCTYPE svg PUBLIC "-//W3C//DTD SVG 20010904//EN"
 "http://www.w3.org/TR/2001/REC-SVG-20010904/DTD/svg10.dtd">
<svg version="1.0" xmlns="http://www.w3.org/2000/svg"
 width="120.000000pt" height="120.000000pt" viewBox="0 0 120.000000 120.000000"
 preserveAspectRatio="xMidYMid meet">

<g transform="translate(0.000000,120.000000) scale(0.100000,-0.100000)"
fill="#000000" stroke="none">
<path d="M283 917 c-255 -254 -283 -285 -283 -315 0 -50 29 -72 95 -72 l55 0
0 -240 0 -241 25 -24 c23 -24 30 -25 150 -25 l125 0 0 200 c0 200 0 201 25
225 22 23 31 25 125 25 94 0 103 -2 125 -25 25 -24 25 -25 25 -225 l0 -200
125 0 c120 0 127 1 150 25 l25 24 0 241 0 240 55 0 c65 0 95 22 95 70 0 24
-16 47 -75 109 l-75 78 0 145 c0 129 -2 146 -20 165 -24 27 -69 37 -125 29
-49 -8 -70 -27 -80 -74 l-7 -33 -93 90 c-79 77 -99 91 -127 91 -29 0 -61 -29
-315 -283z"/>
</g>
</svg>
